<?xml version="1.0" encoding="UTF-8"?>
<svg version="1.1" xmlns="http://www.w3.org/2000/svg" width="550" height="600">
<path d="M0 0 C181.5 0 363 0 550 0 C550 198 550 396 550 600 C368.5 600 187 600 0 600 C0 402 0 204 0 0 Z " fill="#FDFDFC" transform="translate(0,0)"/>
<path d="M0 0 C132.99 0 265.98 0 403 0 C403 50.82 403 101.64 403 154 C398.71 154 394.42 154 390 154 C390 107.8 390 61.6 390 14 C371.19 14 352.38 14 333 14 C333 60.2 333 106.4 333 154 C328.71 154 324.42 154 320 154 C320 138.16 320 122.32 320 106 C283.04 106 246.08 106 208 106 C208 113.59 208 121.18 208 129 C203.71 129 199.42 129 195 129 C195 121.41 195 113.82 195 106 C158.04 106 121.08 106 83 106 C83 141.64 83 177.28 83 214 C103.79 214 124.58 214 146 214 C152 226 152 226 152 227 C129.23 227 106.46 227 83 227 C83 261.65 83 296.3 83 332 C119.63 332 156.26 332 194 332 C194 319.46 194 306.92 194 294 C195.65 295.65 197.3 297.3 199 299 C199.99 299.66 200.98 300.32 202 301 C202.804375 300.01 203.60875 299.02 204.4375 298 C205.283125 297.01 206.12875 296.02 207 295 C207.33 295 207.66 295 208 295 C208 307.21 208 319.42 208 332 C244.96 332 281.92 332 320 332 C320 316.16 320 300.32 320 284 C324.29 284 328.58 284 333 284 C333 330.2 333 376.4 333 424 C351.81 424 370.62 424 390 424 C390 377.8 390 331.6 390 284 C394.29 284 398.58 284 403 284 C403 334.49 403 384.98 403 437 C270.01 437 137.02 437 0 437 C0 292.79 0 148.58 0 0 Z " fill="#050606" transform="translate(67,84)"/>
<path d="M0 0 C78.21 0 156.42 0 237 0 C237 26.07 237 52.14 237 79 C158.79 79 80.58 79 0 79 C0 52.93 0 26.86 0 0 Z " fill="#FBFBFB" transform="translate(150,429)"/>
<path d="M0 0 C77.88 0 155.76 0 236 0 C236 25.74 236 51.48 236 78 C158.12 78 80.24 78 0 78 C0 52.26 0 26.52 0 0 Z " fill="#FDFDFD" transform="translate(151,98)"/>
<path d="M0 0 C18.81 0 37.62 0 57 0 C57 66 57 132 57 200 C38.19 200 19.38 200 0 200 C0 134 0 68 0 0 Z " fill="#FBFBFB" transform="translate(80,98)"/>
<path d="M0 0 C18.81 0 37.62 0 57 0 C57 65.01 57 130.02 57 197 C38.19 197 19.38 197 0 197 C0 131.99 0 66.98 0 0 Z " fill="#FBFBFB" transform="translate(80,311)"/>
<path d="M0 0 C0.88945312 0.39058594 1.77890625 0.78117188 2.6953125 1.18359375 C14.80703187 7.13824129 22.62413894 16.14687708 26.9609375 28.8046875 C30.2586893 40.21067309 29.62339341 51.52265383 27 63 C26.34 63 25.68 63 25 63 C24.835 64.155 24.67 65.31 24.5 66.5 C22.84545439 74.19240236 18.64226697 81.09663354 15 88 C14.34 88 13.68 88 13 88 C12.89075195 88.72566162 12.78150391 89.45132324 12.66894531 90.19897461 C11.9535105 93.19466205 10.90692994 95.20019707 9.296875 97.81640625 C8.73460205 98.73647461 8.1723291 99.65654297 7.59301758 100.60449219 C6.98482178 101.58063477 6.37662598 102.55677734 5.75 103.5625 C5.12826904 104.57086914 4.50653809 105.57923828 3.8659668 106.61816406 C-0.41925134 113.53731603 -4.77372185 120.41218907 -9.1875 127.25 C-9.99719238 128.50792358 -9.99719238 128.50792358 -10.82324219 129.79125977 C-11.32887695 130.56655029 -11.83451172 131.34184082 -12.35546875 132.140625 C-12.79528076 132.81641602 -13.23509277 133.49220703 -13.68823242 134.18847656 C-14.9898996 135.98605155 -16.38782996 137.47954112 -18 139 C-21.21570063 137.6432363 -22.72941798 136.38075976 -24.55859375 133.421875 C-25.02104492 132.68316162 -25.48349609 131.94444824 -25.95996094 131.18334961 C-26.44754883 130.38034424 -26.93513672 129.57733887 -27.4375 128.75 C-27.94958008 127.92185791 -28.46166016 127.09371582 -28.98925781 126.24047852 C-30.67385076 123.50212433 -32.33912652 120.75280047 -34 118 C-34.60279785 117.00403809 -35.2055957 116.00807617 -35.82666016 114.98193359 C-37.64306091 111.97218584 -39.44930659 108.95666844 -41.25 105.9375 C-41.82290771 104.98004883 -42.39581543 104.02259766 -42.98608398 103.03613281 C-43.51145752 102.14635742 -44.03683105 101.25658203 -44.578125 100.33984375 C-45.04637695 99.54956787 -45.51462891 98.75929199 -45.99707031 97.94506836 C-47 96 -47 96 -47 94 C-47.66 94 -48.32 94 -49 94 C-52.28571429 86.57142857 -52.28571429 86.57142857 -53 83 C-53.66 83 -54.32 83 -55 83 C-64.18808444 65.3962807 -69.70850097 47.43586163 -64 27.875 C-63.35787227 25.90848383 -62.7009301 23.94633268 -62 22 C-61.34 22 -60.68 22 -60 22 C-59.93941406 21.2884375 -59.87882813 20.576875 -59.81640625 19.84375 C-57.89822717 13.16224585 -49.76127475 6.93668457 -44.125 3.0625 C-31.07559116 -4.16080913 -13.85934388 -6.13637616 0 0 Z " fill="#020202" transform="translate(287,229)"/>
<path d="M0 0 C48.51 0 97.02 0 147 0 C147 4.62 147 9.24 147 14 C96.51 14 46.02 14 -6 14 C-4 8 -4 8 0 0 Z " fill="#000101" transform="translate(324,297)"/>
<path d="M0 0 C132.33 0 264.66 0 401 0 C401 50.49 401 100.98 401 153 C400.67 153 400.34 153 400 153 C400 103.5 400 54 400 3 C268.33 3 136.66 3 1 3 C1 145.89 1 288.78 1 436 C0.67 436 0.34 436 0 436 C0 292.12 0 148.24 0 0 Z " fill="#191A19" transform="translate(68,84)"/>
<path d="M0 0 C5.02926622 3.28873623 8.18583449 7.65529154 10.04296875 13.3359375 C10.91319707 20.67216459 10.64088453 27.33049648 6.04296875 33.3359375 C0.85566163 38.72784838 -3.59489085 41.6201124 -11.20703125 41.7734375 C-18.40074922 41.65246691 -22.41507324 39.80523996 -27.48046875 34.84375 C-32.62458879 29.104934 -33.42134923 23.80544656 -33.265625 16.33984375 C-32.62737468 10.12700206 -30.08933081 6.11167247 -25.51953125 1.9609375 C-17.70320944 -4.10743048 -8.83599462 -4.41017785 0 0 Z " fill="#F8F8F8" transform="translate(279.95703125,253.6640625)"/>
<path d="M0 0 C48.51 0 97.02 0 147 0 C147 4.62 147 9.24 147 14 C96.51 14 46.02 14 -6 14 C-4 8 -4 8 0 0 Z M1 3 C-3.16537965 8.94570476 -3.16537965 8.94570476 -3 12 C45.51 12 94.02 12 144 12 C144 9.03 144 6.06 144 3 C96.81 3 49.62 3 1 3 Z " fill="#212221" transform="translate(324,297)"/>
<path d="M0 0 C3.96 0 7.92 0 12 0 C11.67 50.16 11.34 100.32 11 152 C-121 152 -253 152 -389 152 C-389 151.67 -389 151.34 -389 151 C-257.33 151 -125.66 151 10 151 C10 102.16 10 53.32 10 3 C7.03 3 4.06 3 1 3 C1 48.21 1 93.42 1 140 C0.67 140 0.34 140 0 140 C0 93.8 0 47.6 0 0 Z " fill="#0E0F0E" transform="translate(458,368)"/>
<path d="M0 0 C3.96 0 7.92 0 12 0 C11.67 50.16 11.34 100.32 11 152 C10.67 152 10.34 152 10 152 C10 102.83 10 53.66 10 3 C7.03 3 4.06 3 1 3 C1 48.21 1 93.42 1 140 C0.67 140 0.34 140 0 140 C0 93.8 0 47.6 0 0 Z " fill="#191A19" transform="translate(458,368)"/>
<path d="M0 0 C3 1 3 1 4.75 4.4375 C5.1625 5.613125 5.575 6.78875 6 8 C5.67 8.66 5.34 9.32 5 10 C-16.78 10 -38.56 10 -61 10 C-61 9.67 -61 9.34 -61 9 C-39.88 8.67 -18.76 8.34 3 8 C2.01 6.02 1.02 4.04 0 2 C0 1.34 0 0.68 0 0 Z " fill="#222222" transform="translate(212,300)"/>
<path d="M0 0 C14.97404262 -0.46902454 24.87170946 1.28775328 38 9 C37.34 9.66 36.68 10.32 36 11 C34.83984375 10.38511719 34.83984375 10.38511719 33.65625 9.7578125 C22.14271953 3.8015554 12.6893699 2.58518939 0 2 C0 1.34 0 0.68 0 0 Z " fill="#141514" transform="translate(260,226)"/>
<path d="M0 0 C4.77254854 5.69626761 5.33720382 9.6163109 5.29296875 16.90625 C4.86374643 21.4388377 3.44795864 24.18406448 1 28 C0.34 28.33 -0.32 28.66 -1 29 C-0.50422602 26.76901708 0.08269878 24.81527437 1.01953125 22.72265625 C3.15341859 16.79708063 2.99824556 9.55161292 0.5 3.75 C0.005 2.8425 -0.49 1.935 -1 1 C-0.67 0.67 -0.34 0.34 0 0 Z " fill="#141414" transform="translate(287,259)"/>
<path d="M0 0 C-1.12202201 3.36606602 -2.09274021 4.19481269 -4.75 6.4375 C-5.46671875 7.0459375 -6.1834375 7.654375 -6.921875 8.28125 C-9.26014318 10.21515601 -11.60876067 12.13184428 -14 14 C-14.66 13.34 -15.32 12.68 -16 12 C-4.52427184 0 -4.52427184 0 0 0 Z " fill="#060606" transform="translate(247,231)"/>
<path d="M0 0 C2.58099426 0.76588681 4.61002277 1.72534548 7 3 C6.67 3.99 6.34 4.98 6 6 C5.113125 5.525625 4.22625 5.05125 3.3125 4.5625 C-2.15691666 2.1668051 -8.11566337 2.25661017 -14 2 C-9.53444222 -0.97703852 -5.23947824 -0.50281502 0 0 Z " fill="#141414" transform="translate(274,249)"/>
<path d="M0 0 C2.38854824 3.58282235 2.26898802 5.31393033 2.25 9.5625 C2.25515625 10.71878906 2.2603125 11.87507813 2.265625 13.06640625 C2 16 2 16 0 18 C-1.48619895 15.02760209 -1.13177009 12.30380422 -1.125 9 C-1.12757813 7.741875 -1.13015625 6.48375 -1.1328125 5.1875 C-1 2 -1 2 0 0 Z " fill="#1D1D1D" transform="translate(246,264)"/>
<path d="M0 0 C3.21043882 1.38188453 5.04936365 2.92421903 7.25 5.625 C8.03117187 6.57246094 8.03117187 6.57246094 8.828125 7.5390625 C9.40820312 8.26222656 9.40820312 8.26222656 10 9 C9.34 9.66 8.68 10.32 8 11 C7.59007812 10.43410156 7.18015625 9.86820313 6.7578125 9.28515625 C6.21898437 8.55167969 5.68015625 7.81820312 5.125 7.0625 C4.59132813 6.33160156 4.05765625 5.60070312 3.5078125 4.84765625 C2.11987896 2.88901765 2.11987896 2.88901765 0 2 C0 1.34 0 0.68 0 0 Z " fill="#0B0B0B" transform="translate(297,236)"/>
<path d="M0 0 C-1 3 -1 3 -4.0625 4.6875 C-5.031875 5.120625 -6.00125 5.55375 -7 6 C-7.33 5.34 -7.66 4.68 -8 4 C-2.25 0 -2.25 0 0 0 Z " fill="#181818" transform="translate(247,231)"/>
</svg>
