<?xml version="1.0" encoding="UTF-8"?>
<svg version="1.1" xmlns="http://www.w3.org/2000/svg" width="808" height="330">
<path d="M0 0 C266.64 0 533.28 0 808 0 C808 108.9 808 217.8 808 330 C541.36 330 274.72 330 0 330 C0 221.1 0 112.2 0 0 Z " fill="#FDFDFD" transform="translate(0,0)"/>
<path d="M0 0 C60.39 0 120.78 0 183 0 C183 23.43 183 46.86 183 71 C181.02 71 179.04 71 177 71 C177 49.55 177 28.1 177 6 C168.42 6 159.84 6 151 6 C151 27.45 151 48.9 151 71 C149.02 71 147.04 71 145 71 C145 63.74 145 56.48 145 49 C128.5 49 112 49 95 49 C95 52.63 95 56.26 95 60 C93.02 60 91.04 60 89 60 C89 56.37 89 52.74 89 49 C72.17 49 55.34 49 38 49 C38 65.17 38 81.34 38 98 C47.57 98 57.14 98 67 98 C67.66 99.98 68.32 101.96 69 104 C58.77 104 48.54 104 38 104 C38.33 119.51 38.66 135.02 39 151 C63.75 151.495 63.75 151.495 89 152 C89 146.39 89 140.78 89 135 C90.32 135.33 91.64 135.66 93 136 C93.66 135.67 94.32 135.34 95 135 C95 140.61 95 146.22 95 152 C111.5 152 128 152 145 152 C145 145.07 145 138.14 145 131 C146.98 131 148.96 131 151 131 C151 152.12 151 173.24 151 195 C159.58 195 168.16 195 177 195 C177 173.88 177 152.76 177 131 C178.98 131 180.96 131 183 131 C183 154.1 183 177.2 183 201 C122.61 201 62.22 201 0 201 C0 134.67 0 68.34 0 0 Z " fill="#0D0D0D" transform="translate(44,76)"/>
<path d="M0 0 C1.68706055 -0.0299707 1.68706055 -0.0299707 3.40820312 -0.06054688 C11.72704353 -0.05571315 18.91831428 1.07074378 25.58984375 6.33203125 C32.7071441 15.22412915 34.35830057 21.96365446 33.1875 33.4375 C31.61795975 39.25998804 28.60241133 44.32313428 24.1875 48.4375 C23.17816406 49.49904297 23.17816406 49.49904297 22.1484375 50.58203125 C11.73545338 59.56362329 -1.90210513 57.09957153 -14.8125 56.4375 C-14.4825 63.6975 -14.1525 70.9575 -13.8125 78.4375 C-4.2425 78.4375 5.3275 78.4375 15.1875 78.4375 C15.20012867 71.51215616 15.20012867 71.51215616 15.125 64.58764648 C15.22415551 60.37702325 15.31851619 57.50834342 18.03515625 54.16064453 C20.01398289 52.42917122 21.99287056 50.88256851 24.1875 49.4375 C29.3016538 53.30152732 32.08823808 56.54011682 33.875 62.875 C34.95060694 71.69497688 33.51429831 79.53699927 28.375 86.875 C25.7228766 90.14067433 23.21017093 92.007217 19.1875 93.4375 C18.1975 93.4375 17.2075 93.4375 16.1875 93.4375 C16.1875 94.0975 16.1875 94.7575 16.1875 95.4375 C5.9575 95.4375 -4.2725 95.4375 -14.8125 95.4375 C-14.8125 94.7775 -14.8125 94.1175 -14.8125 93.4375 C-15.51375 93.355 -16.215 93.2725 -16.9375 93.1875 C-21.5579159 91.98217411 -24.67318898 90.24573626 -27.26953125 86.125 C-31.56362832 77.80905409 -33.44601029 69.6289024 -31.01171875 60.40234375 C-27.5830926 51.08260738 -21.60910282 44.97958234 -12.8125 40.4375 C-9.67456055 40.00512695 -9.67456055 40.00512695 -6.19921875 39.92578125 C-4.95205078 39.89033203 -3.70488281 39.85488281 -2.41992188 39.81835938 C-0.47956055 39.78452148 -0.47956055 39.78452148 1.5 39.75 C2.81291016 39.71583984 4.12582031 39.68167969 5.47851562 39.64648438 C8.71454519 39.56411271 11.95100892 39.49912721 15.1875 39.4375 C15.5175 32.1775 15.8475 24.9175 16.1875 17.4375 C5.9575 17.4375 -4.2725 17.4375 -14.8125 17.4375 C-14.53676601 24.40943801 -14.53676601 24.40943801 -14.18188477 31.37744141 C-14.04348178 38.33075655 -14.04348178 38.33075655 -16.26123047 41.52246094 C-18.08343675 43.20502151 -19.52921762 44.46149839 -21.8125 45.4375 C-24.35287859 45.11727448 -25.44527591 44.80571391 -27.26171875 42.984375 C-27.67035156 42.39140625 -28.07898438 41.7984375 -28.5 41.1875 C-28.91636719 40.60484375 -29.33273437 40.0221875 -29.76171875 39.421875 C-33.06289363 33.18768601 -32.7598772 24.88714253 -30.94140625 18.265625 C-27.87610376 10.18528663 -24.33946517 5.95180909 -16.88671875 1.8125 C-11.49086351 -0.41743435 -5.74370616 -0.03583708 0 0 Z " fill="#060807" transform="translate(707.8125,126.5625)"/>
<path d="M0 0 C35.31 0 70.62 0 107 0 C107 12.21 107 24.42 107 37 C71.69 37 36.38 37 0 37 C0 24.79 0 12.58 0 0 Z " fill="#F8F8F8" transform="translate(82,234)"/>
<path d="M0 0 C35.31 0 70.62 0 107 0 C107 12.21 107 24.42 107 37 C93.19658762 37.02254836 79.39318737 37.04091354 65.58976078 37.05181217 C59.18100872 37.05704166 52.77226985 37.0641405 46.36352539 37.07543945 C40.18440559 37.08626599 34.00529852 37.09227634 27.82616997 37.09487724 C25.4629439 37.09673192 23.09971856 37.10035332 20.73649788 37.10573006 C17.43898104 37.11293738 14.14151753 37.11399107 10.84399414 37.11352539 C9.85641113 37.11712067 8.86882812 37.12071594 7.85131836 37.12442017 C6.95804337 37.1230455 6.06476837 37.12167084 5.14442444 37.12025452 C3.97328645 37.12163721 3.97328645 37.12163721 2.77848911 37.12304783 C1 37 1 37 0 36 C0 24.12 0 12.24 0 0 Z " fill="#F8F8F7" transform="translate(82,82)"/>
<path d="M0 0 C2.18359375 1.1015625 2.18359375 1.1015625 5.37109375 3.1015625 C5.37109375 3.7615625 5.37109375 4.4215625 5.37109375 5.1015625 C6.03109375 5.1015625 6.69109375 5.1015625 7.37109375 5.1015625 C7.49484375 5.7409375 7.61859375 6.3803125 7.74609375 7.0390625 C7.95234375 7.7196875 8.15859375 8.4003125 8.37109375 9.1015625 C9.03109375 9.4315625 9.69109375 9.7615625 10.37109375 10.1015625 C10.46648438 9.50730469 10.561875 8.91304687 10.66015625 8.30078125 C11.52438292 5.62737678 12.59109686 4.6826148 14.74609375 2.9140625 C15.65488281 2.15029297 15.65488281 2.15029297 16.58203125 1.37109375 C21.65026217 -2.22535832 28.46235476 -1.4013089 34.37109375 -0.8984375 C39.75505747 0.65430439 43.34781413 3.3340831 46.37109375 8.1015625 C48.01377104 11.63326565 48.61781896 14.37333277 48.59814453 18.2590332 C48.59799347 19.25969315 48.59784241 20.26035309 48.59768677 21.29133606 C48.5873642 22.3592186 48.57704163 23.42710114 48.56640625 24.52734375 C48.56357635 25.63007126 48.56074646 26.73279877 48.55783081 27.86894226 C48.54665356 31.38409364 48.52155312 34.89898839 48.49609375 38.4140625 C48.48606079 40.80012652 48.47693549 43.18619455 48.46875 45.57226562 C48.4467222 51.41546316 48.41220888 57.25846935 48.37109375 63.1015625 C42.76109375 63.1015625 37.15109375 63.1015625 31.37109375 63.1015625 C31.34136475 61.17908691 31.34136475 61.17908691 31.31103516 59.21777344 C31.23494872 54.46155183 31.14623577 49.70563493 31.05371094 44.94970703 C31.0154338 42.89150001 30.98057871 40.83322638 30.94921875 38.77490234 C30.90354097 35.81583862 30.84555073 32.85723293 30.78515625 29.8984375 C30.77360504 28.97851013 30.76205383 28.05858276 30.75015259 27.11077881 C30.7302829 26.2501886 30.71041321 25.38959839 30.68994141 24.50292969 C30.67661774 23.74792175 30.66329407 22.99291382 30.64956665 22.21502686 C30.33054984 19.79385536 29.65219856 18.17370381 28.37109375 16.1015625 C27.71109375 15.7715625 27.05109375 15.4415625 26.37109375 15.1015625 C26.37109375 14.4415625 26.37109375 13.7815625 26.37109375 13.1015625 C24.97426293 13.13503775 23.57828738 13.20488034 22.18359375 13.2890625 C21.40628906 13.32386719 20.62898437 13.35867187 19.828125 13.39453125 C16.11681236 14.46249244 14.73665245 16.04604918 12.37109375 19.1015625 C11.6260334 22.46919708 11.64962375 25.77596311 11.6640625 29.21484375 C11.64894119 30.18439499 11.63381989 31.15394623 11.61824036 32.15287781 C11.57535884 35.24017587 11.56652476 38.32649628 11.55859375 41.4140625 C11.53544985 43.51109371 11.51008474 45.60810166 11.48242188 47.70507812 C11.4195647 52.83732603 11.387233 57.96896363 11.37109375 63.1015625 C5.76109375 63.1015625 0.15109375 63.1015625 -5.62890625 63.1015625 C-5.6539624 61.81991211 -5.67901855 60.53826172 -5.70483398 59.21777344 C-5.7990222 54.46165 -5.89921515 49.70566871 -6.0012207 44.94970703 C-6.04452634 42.89147263 -6.08620454 40.83320332 -6.1262207 38.77490234 C-6.184029 35.81597371 -6.24769321 32.8572201 -6.3125 29.8984375 C-6.32921249 28.97851013 -6.34592499 28.05858276 -6.36314392 27.11077881 C-6.39306175 25.81989349 -6.39306175 25.81989349 -6.42358398 24.50292969 C-6.44690041 23.37041779 -6.44690041 23.37041779 -6.47068787 22.21502686 C-6.63251138 20.05340557 -6.96013088 18.16342942 -7.62890625 16.1015625 C-10.55623667 13.75969817 -13.87722814 13.76816692 -17.53125 13.54296875 C-21.05356511 14.48094093 -22.40443318 16.24647697 -24.62890625 19.1015625 C-25.37584605 22.46867463 -25.3503756 25.77611723 -25.3359375 29.21484375 C-25.35105881 30.18439499 -25.36618011 31.15394623 -25.38175964 32.15287781 C-25.42464116 35.24017587 -25.43347524 38.32649628 -25.44140625 41.4140625 C-25.46455015 43.51109371 -25.48991526 45.60810166 -25.51757812 47.70507812 C-25.5804353 52.83732603 -25.612767 57.96896363 -25.62890625 63.1015625 C-31.56890625 63.1015625 -37.50890625 63.1015625 -43.62890625 63.1015625 C-43.62890625 42.3115625 -43.62890625 21.5215625 -43.62890625 0.1015625 C-38.34890625 0.1015625 -33.06890625 0.1015625 -27.62890625 0.1015625 C-27.62890625 3.4015625 -27.62890625 6.7015625 -27.62890625 10.1015625 C-26.96890625 10.1015625 -26.30890625 10.1015625 -25.62890625 10.1015625 C-25.53609375 9.26625 -25.53609375 9.26625 -25.44140625 8.4140625 C-24.09677394 4.58703208 -21.23739572 2.11968331 -17.8515625 -0.0234375 C-12.4659097 -2.14362419 -5.42349225 -1.85349661 0 0 Z " fill="#030404" transform="translate(618.62890625,153.8984375)"/>
<path d="M0 0 C7.02042639 3.91709449 12.63379277 9.04754753 15.875 16.4375 C18.07796407 26.53441867 19.08852922 41.80035767 13.39453125 50.76953125 C7.00475528 59.50081453 0.38164909 62.53603246 -10.125 64.4375 C-19.33788556 65.48259173 -27.89453798 63.18518228 -35.125 57.4375 C-41.49380477 51.67174603 -44.90988932 44.74991975 -45.5078125 36.1796875 C-45.9142436 25.72071328 -44.99014205 16.32528293 -38.625 7.625 C-28.90329265 -2.33734367 -12.94073671 -5.13592497 0 0 Z " fill="#050606" transform="translate(391.125,154.5625)"/>
<path d="M0 0 C8.60822212 7.2338001 12.12507172 14.1255738 13.5 25.125 C7.23 25.125 0.96 25.125 -5.5 25.125 C-6.16 22.815 -6.82 20.505 -7.5 18.125 C-10.73323303 14.08345872 -13.4355788 12.17610629 -18.5 11.125 C-24.31802516 10.48941742 -29.49714765 10.66573437 -34.67578125 13.5859375 C-39.14329455 17.3551029 -42.55134087 23.34024162 -43.5 29.125 C-44.11342201 38.70846187 -44.67884862 48.63226209 -39.5 57.125 C-35.57314518 61.54962515 -31.89664135 64.82208315 -25.828125 65.36328125 C-19.09414514 65.52564878 -14.85204697 65.36203718 -9.5 61.125 C-6.76368672 57.66860428 -5.57400535 55.42102142 -4.5 51.125 C1.44 51.125 7.38 51.125 13.5 51.125 C11.81582232 60.10728099 9.10561643 69.01770721 1.41015625 74.65625 C-8.71571832 81.18288006 -19.36193081 83.66296396 -31.28515625 81.65625 C-41.16735311 79.32121614 -49.0887252 74.88587007 -55.03515625 66.546875 C-57.43638024 62.57685134 -59.09692458 58.53869454 -60.5 54.125 C-60.72558594 53.44179687 -60.95117188 52.75859375 -61.18359375 52.0546875 C-65.05437394 38.01309869 -62.57253177 24.22608206 -56.1484375 11.43359375 C-50.98855787 2.91546844 -42.84884306 -2.70185254 -33.5 -5.875 C-22.04914075 -8.59184399 -9.70040043 -6.94190615 0 0 Z " fill="#040505" transform="translate(326.5,136.875)"/>
<path d="M0 0 C5.61 0 11.22 0 17 0 C17.03738281 2.73410156 17.07476562 5.46820313 17.11328125 8.28515625 C17.15956668 10.94954167 17.21077474 13.6137905 17.26245117 16.27807617 C17.29559026 18.12174088 17.32365613 19.96550436 17.34643555 21.80932617 C17.38018512 24.46836208 17.43250966 27.12650187 17.48828125 29.78515625 C17.49467117 30.60210464 17.5010611 31.41905304 17.50764465 32.26075745 C17.6417388 37.54671396 18.52747026 41.30208065 21 46 C24.14381258 48.87434293 25.70241439 49 30 49 C34.24272173 48.27817589 36.33326563 46.39402557 39 43 C39.88565586 40.34303242 40.1450262 38.71809917 40.20532227 35.98754883 C40.22526749 35.18694534 40.24521271 34.38634186 40.26576233 33.56147766 C40.28247482 32.70201035 40.29918732 31.84254303 40.31640625 30.95703125 C40.33718735 30.0734343 40.35796844 29.18983734 40.37937927 28.27946472 C40.44475754 25.45722215 40.50370528 22.63488665 40.5625 19.8125 C40.60569637 17.89907894 40.64931102 15.98566727 40.69335938 14.07226562 C40.80042695 9.38160563 40.90172752 4.69085217 41 0 C46.61 0 52.22 0 58 0 C58 20.79 58 41.58 58 63 C52.72 63 47.44 63 42 63 C42 60.03 42 57.06 42 54 C41.34 54 40.68 54 40 54 C39.79375 54.7425 39.5875 55.485 39.375 56.25 C37.18780012 60.62439976 33.67440822 62.20266275 29.375 64.25 C24.1778025 65.40493278 16.89950669 66.44975334 12 64 C12 63.34 12 62.68 12 62 C11.2575 61.773125 10.515 61.54625 9.75 61.3125 C4.56076865 58.8358214 2.53381282 54.63336972 0.62191772 49.36425781 C-0.54387456 44.93242801 -0.3644233 40.49125766 -0.29296875 35.9375 C-0.28872391 34.90560547 -0.28447906 33.87371094 -0.28010559 32.81054688 C-0.26341801 29.54009033 -0.22578395 26.27026783 -0.1875 23 C-0.17244036 20.77214437 -0.1587542 18.544279 -0.14648438 16.31640625 C-0.11354693 10.87736279 -0.06183324 5.43878861 0 0 Z " fill="#020403" transform="translate(417,154)"/>
<path d="M0 0 C8.58 0 17.16 0 26 0 C26 30.36 26 60.72 26 92 C17.42 92 8.84 92 0 92 C0 61.64 0 31.28 0 0 Z " fill="#F7F7F7" transform="translate(50,82)"/>
<path d="M0 0 C8.25 0 16.5 0 25 0 C25 29.37 25 58.74 25 89 C16.75 89 8.5 89 0 89 C0 59.63 0 30.26 0 0 Z " fill="#FCFCFC" transform="translate(51,181)"/>
<path d="M0 0 C5.30564721 3.1391746 8.75573583 7.22482756 11 12.9375 C13.98026363 29.6269763 2.00580522 46.22539722 -7.09375 59.5078125 C-7.8465625 60.47460938 -8.599375 61.44140625 -9.375 62.4375 C-10.035 62.4375 -10.695 62.4375 -11.375 62.4375 C-12.80786133 60.37719727 -12.80786133 60.37719727 -14.45703125 57.50390625 C-15.05966797 56.46169922 -15.66230469 55.41949219 -16.28320312 54.34570312 C-17.22583008 52.68958008 -17.22583008 52.68958008 -18.1875 51 C-19.11272461 49.39608398 -19.11272461 49.39608398 -20.05664062 47.75976562 C-21.27264074 45.64694927 -22.4825447 43.53061151 -23.68603516 41.41064453 C-24.7481152 39.54102747 -25.81940193 37.67658057 -26.90380859 35.81982422 C-27.35191895 35.04268066 -27.8000293 34.26553711 -28.26171875 33.46484375 C-28.64932373 32.800896 -29.03692871 32.13694824 -29.4362793 31.45288086 C-32.31835915 25.26521658 -32.33112785 17.59416177 -30.1875 11.1875 C-27.86377575 5.74025803 -23.73427606 1.95542606 -18.5234375 -0.83203125 C-12.58452627 -2.85126107 -5.72516068 -2.53841097 0 0 Z " fill="#040404" transform="translate(146.375,143.5625)"/>
<path d="M0 0 C5.61 0 11.22 0 17 0 C17 5.61 17 11.22 17 17 C21.29 17 25.58 17 30 17 C30 21.29 30 25.58 30 30 C25.71 30 21.42 30 17 30 C17.06894023 34.62699403 17.15693558 39.25308978 17.26245117 43.87939453 C17.29566372 45.45253522 17.32370717 47.02579401 17.34643555 48.59912109 C17.38005028 50.86346672 17.43236624 53.12673365 17.48828125 55.390625 C17.49467117 56.09181458 17.5010611 56.79300415 17.50764465 57.51544189 C17.62942492 61.5783364 18.02968779 64.11694298 21 67 C23.0488648 67.48057715 23.0488648 67.48057715 25.1875 67.25 C26.445625 67.1675 27.70375 67.085 29 67 C29.66 71.29 30.32 75.58 31 80 C22.5792076 83.36831696 16.02537689 82.37771019 7.54296875 79.55859375 C4.00905662 77.39264761 1.84081752 74.65848895 0 71 C-0.64023158 67.7604805 -0.58697947 64.63943938 -0.48828125 61.34765625 C-0.47766914 59.99745644 -0.47766914 59.99745644 -0.46684265 58.61997986 C-0.43902481 55.76661354 -0.37631217 52.9152654 -0.3125 50.0625 C-0.28740073 48.11916912 -0.26459042 46.17580724 -0.24414062 44.23242188 C-0.18923974 39.48751274 -0.10305673 34.74409761 0 30 C-2.97 30 -5.94 30 -9 30 C-9 25.71 -9 21.42 -9 17 C-6.03 17 -3.06 17 0 17 C0 11.39 0 5.78 0 0 Z " fill="#040505" transform="translate(537,137)"/>
<path d="M0 0 C0.33 0 0.66 0 1 0 C1.33 17.49 1.66 34.98 2 53 C2.99 53.33 3.98 53.66 5 54 C5 65.88 5 77.76 5 90 C40.31 90 75.62 90 112 90 C112 77.46 112 64.92 112 52 C77.35 52 42.7 52 7 52 C7 51.67 7 51.34 7 51 C25.48 50.67 43.96 50.34 63 50 C62.67 49.01 62.34 48.02 62 47 C78.5 47 95 47 112 47 C112 40.07 112 33.14 112 26 C113.98 26 115.96 26 118 26 C118 47.12 118 68.24 118 90 C126.58 90 135.16 90 144 90 C144 68.88 144 47.76 144 26 C145.98 26 147.96 26 150 26 C150 49.1 150 72.2 150 96 C89.94 96 29.88 96 -32 96 C-32 95.67 -32 95.34 -32 95 C15.52 94.67 63.04 94.34 112 94 C109.36 93.67 106.72 93.34 104 93 C104 92.67 104 92.34 104 92 C71.99 92 39.98 92 7 92 C7 92.33 7 92.66 7 93 C4.03 93 1.06 93 -2 93 C-2 92.67 -2 92.34 -2 92 C-9.92 91.67 -17.84 91.34 -26 91 C-26 90.67 -26 90.34 -26 90 C-17.42 90 -8.84 90 0 90 C0 60.3 0 30.6 0 0 Z " fill="#030303" transform="translate(77,181)"/>
<path d="M0 0 C1.98 0 3.96 0 6 0 C6 0.66 6 1.32 6 2 C14.58 2 23.16 2 32 2 C32 2.33 32 2.66 32 3 C23.42 3 14.84 3 6 3 C6 24.45 6 45.9 6 68 C4.02 68 2.04 68 0 68 C0 60.74 0 53.48 0 46 C-16.5 46 -33 46 -50 46 C-50 49.63 -50 53.26 -50 57 C-51.98 57 -53.96 57 -56 57 C-56 53.37 -56 49.74 -56 46 C-72.83 46 -89.66 46 -107 46 C-107 62.17 -107 78.34 -107 95 C-107.99 94.67 -108.98 94.34 -110 94 C-110.06940096 82.30003692 -110.12276078 70.60012252 -110.15543652 58.8999958 C-110.17111639 53.46759922 -110.19239695 48.03534308 -110.22631836 42.60302734 C-110.2588291 37.36404915 -110.2768355 32.12520635 -110.28463173 26.8861351 C-110.29019017 24.88376609 -110.30104391 22.88140479 -110.31719017 20.87909317 C-110.33885442 18.08215359 -110.34197157 15.28577901 -110.34057617 12.48876953 C-110.351362 11.65439362 -110.36214783 10.8200177 -110.3732605 9.96035767 C-110.36076355 7.65725708 -110.36076355 7.65725708 -110 4 C-106.8554338 1.90362254 -106.15521392 1.75110149 -102.57710266 1.75949097 C-101.22044495 1.75536697 -101.22044495 1.75536697 -99.83638 1.75115967 C-98.35176521 1.7619455 -98.35176521 1.7619455 -96.8371582 1.77294922 C-95.27105301 1.77251114 -95.27105301 1.77251114 -93.67330933 1.77206421 C-90.21571598 1.77345967 -86.75833704 1.78903123 -83.30078125 1.8046875 C-80.9061037 1.80841686 -78.51142462 1.81126419 -76.116745 1.81326294 C-69.8087443 1.82090547 -63.50083546 1.84055936 -57.19287109 1.8626709 C-50.75815066 1.88311593 -44.32341541 1.89226179 -37.88867188 1.90234375 C-25.25907536 1.9238046 -12.62954256 1.95756456 0 2 C0 1.34 0 0.68 0 0 Z M-107 3 C-107 14.88 -107 26.76 -107 39 C-106.02504214 40.19382943 -106.02504214 40.19382943 -104.22151089 40.12304783 C-103.44075223 40.12212604 -102.65999357 40.12120424 -101.85557556 40.12025452 C-100.96230057 40.12162918 -100.06902557 40.12300385 -99.14868164 40.12442017 C-98.16109863 40.12082489 -97.17351562 40.11722961 -96.15600586 40.11352539 C-94.6049691 40.11374443 -94.6049691 40.11374443 -93.02259827 40.1139679 C-89.58665914 40.11326827 -86.15077347 40.10547358 -82.71484375 40.09765625 C-80.33972707 40.09579225 -77.96461 40.09436826 -75.5894928 40.09336853 C-69.32423856 40.08954197 -63.05900733 40.0797105 -56.79376221 40.06866455 C-50.4061311 40.0584534 -44.01849629 40.05387155 -37.63085938 40.04882812 C-25.08722782 40.03808836 -12.54361942 40.02049044 0 40 C0 27.79 0 15.58 0 3 C-35.31 3 -70.62 3 -107 3 Z " fill="#030404" transform="translate(189,79)"/>
<path d="M0 0 C0 5.28 0 10.56 0 16 C-4.29 15.67 -8.58 15.34 -13 15 C-13 15.66 -13 16.32 -13 17 C-13.598125 17.20625 -14.19625 17.4125 -14.8125 17.625 C-17.955101 19.6003492 -18.62164068 21.5583224 -20 25 C-20.4436388 28.03982631 -20.48786666 31.04844385 -20.51171875 34.1171875 C-20.52966995 34.97434357 -20.54762115 35.83149963 -20.56611633 36.71463013 C-20.62001405 39.43470436 -20.65404858 42.1546052 -20.6875 44.875 C-20.72069126 46.72658652 -20.75518259 48.57815022 -20.79101562 50.4296875 C-20.87816113 54.95314711 -20.93840336 59.47583268 -21 64 C-26.61 64 -32.22 64 -38 64 C-38 43.21 -38 22.42 -38 1 C-32.72 1 -27.44 1 -22 1 C-22 4.3 -22 7.6 -22 11 C-21.34 11 -20.68 11 -20 11 C-19.79375 9.9275 -19.5875 8.855 -19.375 7.75 C-18 4 -18 4 -15.625 1.5625 C-10.28736274 -0.73820571 -5.78704075 -0.25720181 0 0 Z " fill="#010302" transform="translate(524,153)"/>
<path d="M0 0 C0.99 0.33 1.98 0.66 3 1 C3 61.72 3 122.44 3 185 C3.33 158.6 3.66 132.2 4 105 C7.23751678 103.92082774 9.57751771 103.88574399 12.98046875 103.90234375 C14.14384766 103.90556641 15.30722656 103.90878906 16.50585938 103.91210938 C17.72080078 103.92048828 18.93574219 103.92886719 20.1875 103.9375 C21.41404297 103.94201172 22.64058594 103.94652344 23.90429688 103.95117188 C26.93624668 103.96296935 29.96809906 103.97943079 33 104 C33.02313347 115.830381 33.04092023 127.66075665 33.05181217 139.49115562 C33.05703879 144.98402071 33.06413246 150.47687036 33.07543945 155.96972656 C33.08627614 161.26704689 33.09227851 166.56435234 33.09487724 171.86168289 C33.09673007 173.88636128 33.10034799 175.91103882 33.10573006 177.93571091 C33.11295083 180.76363661 33.1139905 183.59150021 33.11352539 186.41943359 C33.11712067 187.26316025 33.12071594 188.1068869 33.12442017 188.97618103 C33.11405216 194.77189568 33.11405216 194.77189568 32 197 C34.31 197 36.62 197 39 197 C39 196.67 39 196.34 39 196 C73.98 196 108.96 196 145 196 C145 196.66 145 197.32 145 198 C157.21 198.33 169.42 198.66 182 199 C182 199.33 182 199.66 182 200 C121.94 200.33 61.88 200.66 0 201 C0 134.67 0 68.34 0 0 Z M7 105 C7 134.37 7 163.74 7 194 C15.25 194 23.5 194 32 194 C32 164.63 32 135.26 32 105 C23.75 105 15.5 105 7 105 Z " fill="#272727" transform="translate(44,76)"/>
<path d="M0 0 C4.44538733 0.66140241 5.840382 1.93814589 8.73046875 5.40625 C12.63646235 11.99575065 12.62784346 19.56790469 11.26171875 26.93359375 C9.70986951 32.48514967 7.76426379 35.51647877 2.73046875 38.40625 C-1.79785931 39.30073456 -5.1102478 39.06149717 -9.14453125 36.78125 C-15.08080563 30.1465904 -15.61618398 23.22223779 -15.55859375 14.6796875 C-15.09289798 9.40599761 -13.15470871 5.83327487 -9.96484375 1.7265625 C-6.9435426 -0.6264324 -3.68510961 -0.11683307 0 0 Z " fill="#F8F8F8" transform="translate(379.26953125,166.59375)"/>
<path d="M0 0 C0.33 15.51 0.66 31.02 1 47 C25.75 47.495 25.75 47.495 51 48 C51 42.39 51 36.78 51 31 C52.32 31.33 53.64 31.66 55 32 C55.66 31.67 56.32 31.34 57 31 C57 36.94 57 42.88 57 49 C73.5 49 90 49 107 49 C107 50.65 107 52.3 107 54 C71.69 54.33 36.38 54.66 0 55 C-0.33 66.55 -0.66 78.1 -1 90 C-1.99 90 -2.98 90 -4 90 C-4 60.63 -4 31.26 -4 1 C-1 0 -1 0 0 0 Z " fill="#1A1B1A" transform="translate(82,180)"/>
<path d="M0 0 C0.99 0.495 0.99 0.495 2 1 C2 61.72 2 122.44 2 185 C2.33 158.6 2.66 132.2 3 105 C6.23751678 103.92082774 8.57751771 103.88574399 11.98046875 103.90234375 C13.14384766 103.90556641 14.30722656 103.90878906 15.50585938 103.91210938 C16.72080078 103.92048828 17.93574219 103.92886719 19.1875 103.9375 C20.41404297 103.94201172 21.64058594 103.94652344 22.90429688 103.95117188 C25.93624668 103.96296935 28.96809906 103.97943079 32 104 C32.02313347 115.830381 32.04092023 127.66075665 32.05181217 139.49115562 C32.05703879 144.98402071 32.06413246 150.47687036 32.07543945 155.96972656 C32.08627614 161.26704689 32.09227851 166.56435234 32.09487724 171.86168289 C32.09673007 173.88636128 32.10034799 175.91103882 32.10573006 177.93571091 C32.11295083 180.76363661 32.1139905 183.59150021 32.11352539 186.41943359 C32.11712067 187.26316025 32.12071594 188.1068869 32.12442017 188.97618103 C32.11405216 194.77189568 32.11405216 194.77189568 31 197 C33.31 197.33 35.62 197.66 38 198 C38 198.33 38 198.66 38 199 C25.46 199 12.92 199 0 199 C0 133.33 0 67.66 0 0 Z M6 105 C6 134.37 6 163.74 6 194 C14.25 194 22.5 194 31 194 C31 164.63 31 135.26 31 105 C22.75 105 14.5 105 6 105 Z " fill="#303130" transform="translate(45,76)"/>
<path d="M0 0 C21.78 0 43.56 0 66 0 C66 1.98 66 3.96 66 6 C43.56 6 21.12 6 -2 6 C-1.34 4.02 -0.68 2.04 0 0 Z " fill="#0A0A0A" transform="translate(161,174)"/>
<path d="M0 0 C5.61 0 11.22 0 17 0 C17 20.46 17 40.92 17 62 C12.05 62 7.1 62 2 62 C2 59.36 2 56.72 2 54 C2.33 54 2.66 54 3 54 C3 56.31 3 58.62 3 61 C6.63 61 10.26 61 14 61 C14 41.53 14 22.06 14 2 C10.04 2 6.08 2 2 2 C2.02094727 3.15000488 2.04189453 4.30000977 2.06347656 5.48486328 C2.13609063 9.76745056 2.18187729 14.04998383 2.21972656 18.33300781 C2.23979339 20.18368696 2.26705345 22.03430309 2.30175781 23.88476562 C2.35049433 26.55093977 2.37301787 29.21627287 2.390625 31.8828125 C2.41127014 32.70492218 2.43191528 33.52703186 2.45318604 34.37405396 C2.45573464 40.95685729 0.32790489 44.38992482 -4.0625 49.3125 C-6.74761088 51.65114496 -8.79022576 51.98020998 -12.3125 52.3125 C-16.64707225 51.94516337 -18.68125027 50.75213393 -22 48 C-22 47.34 -22 46.68 -22 46 C-22.66 46 -23.32 46 -24 46 C-24 45.34 -24 44.68 -24 44 C-21.72845746 45.09370567 -19.77636507 46.1677262 -17.75 47.6875 C-14.00206563 49.47628686 -10.85574673 49.2930383 -7 48 C-3.8213759 45.4300486 -2.29271891 43.87815673 -1 40 C-0.88764839 38.66548737 -0.82424351 37.32645611 -0.79467773 35.98754883 C-0.77473251 35.18694534 -0.75478729 34.38634186 -0.73423767 33.56147766 C-0.71752518 32.70201035 -0.70081268 31.84254303 -0.68359375 30.95703125 C-0.66281265 30.0734343 -0.64203156 29.18983734 -0.62062073 28.27946472 C-0.55524246 25.45722215 -0.49629472 22.63488665 -0.4375 19.8125 C-0.39430363 17.89907894 -0.35068898 15.98566727 -0.30664062 14.07226562 C-0.19957305 9.38160563 -0.09827248 4.69085217 0 0 Z " fill="#0A0B0A" transform="translate(458,154)"/>
<path d="M0 0 C3.03978021 0.68164768 4.80055419 2.23591662 6.93359375 4.43359375 C8.5408501 7.64810644 7.9910756 10.86971911 7.93359375 14.43359375 C7.27359375 14.43359375 6.61359375 14.43359375 5.93359375 14.43359375 C5.64484375 15.07296875 5.35609375 15.71234375 5.05859375 16.37109375 C3.93359375 18.43359375 3.93359375 18.43359375 1.93359375 19.43359375 C-5.00904049 20.11647581 -5.00904049 20.11647581 -9.06640625 17.49609375 C-11.39838638 13.92524918 -11.8090819 11.78853356 -11.54296875 7.59375 C-10.17888267 1.4106385 -5.7420565 -0.35820012 0 0 Z " fill="#F1F2F1" transform="translate(138.06640625,152.56640625)"/>
<path d="M0 0 C0.33 0.66 0.66 1.32 1 2 C-8.9 2 -18.8 2 -29 2 C-29 16.85 -29 31.7 -29 47 C-25.63039063 46.97679687 -22.26078125 46.95359375 -18.7890625 46.9296875 C-15.53581113 46.91410278 -12.28256386 46.90195131 -9.02929688 46.89013672 C-6.76332751 46.88006141 -4.49737119 46.86640082 -2.23144531 46.84912109 C1.02021501 46.82493989 4.27170387 46.81353237 7.5234375 46.8046875 C9.05005508 46.78920364 9.05005508 46.78920364 10.60751343 46.77340698 C11.54833771 46.77325592 12.48916199 46.77310486 13.45849609 46.77294922 C14.28900482 46.768508 15.11951355 46.76406677 15.97518921 46.75949097 C18 47 18 47 20 49 C12.89755001 49.02526787 5.79511152 49.04283201 -1.30737305 49.05493164 C-3.72567172 49.05997349 -6.14396733 49.06680678 -8.56225586 49.07543945 C-12.02979283 49.08751157 -15.49728966 49.09322963 -18.96484375 49.09765625 C-20.05337143 49.10281754 -21.14189911 49.10797882 -22.26341248 49.11329651 C-23.76485558 49.11340981 -23.76485558 49.11340981 -25.29663086 49.11352539 C-26.62566689 49.11685631 -26.62566689 49.11685631 -27.98155212 49.12025452 C-30 49 -30 49 -31 48 C-31.09304018 46.52645652 -31.11746265 45.04849409 -31.11352539 43.57202148 C-31.11344986 42.63112167 -31.11337433 41.69022186 -31.11329651 40.72080994 C-31.10813522 39.69790359 -31.10297394 38.67499725 -31.09765625 37.62109375 C-31.0962413 36.57929459 -31.09482635 35.53749542 -31.09336853 34.46412659 C-31.0877508 31.12188906 -31.0751953 27.77971743 -31.0625 24.4375 C-31.05748728 22.17773534 -31.05292398 19.91796963 -31.04882812 17.65820312 C-31.03862456 12.10542266 -31.01905264 6.55278548 -31 1 C-15.655 0.505 -15.655 0.505 0 0 Z " fill="#B2B3B2" transform="translate(113,179)"/>
<path d="M0 0 C4.29 0 8.58 0 13 0 C13 2.64 13 5.28 13 8 C12.67 8 12.34 8 12 8 C12 5.69 12 3.38 12 1 C8.37 1 4.74 1 1 1 C1 20.47 1 39.94 1 60 C4.96 60 8.92 60 13 60 C12.98952637 58.85934082 12.97905273 57.71868164 12.96826172 56.54345703 C12.93212283 52.32050706 12.90912188 48.09757081 12.89013672 43.87451172 C12.88006516 42.04506127 12.86640724 40.21562697 12.84912109 38.38623047 C12.82492323 35.76005066 12.81352868 33.13408325 12.8046875 30.5078125 C12.79436493 29.68693146 12.78404236 28.86605042 12.77340698 28.02029419 C12.77300816 26.01210858 12.8775046 24.00444618 13 22 C13.66 21.34 14.32 20.68 15 20 C16.32339119 23.97017357 16.01212931 27.69673557 15.87890625 31.82421875 C15.85529526 32.68561966 15.83168427 33.54702057 15.80735779 34.43452454 C15.7307872 37.18568675 15.6467344 39.9365628 15.5625 42.6875 C15.5092727 44.55272037 15.45653235 46.41795471 15.40429688 48.28320312 C15.27609595 52.85570265 15.13778255 57.42773893 15 62 C9.39 62 3.78 62 -2 62 C-2 61.34 -2 60.68 -2 60 C-1.34 60 -0.68 60 0 60 C0 40.2 0 20.4 0 0 Z " fill="#0F1010" transform="translate(488,155)"/>
<path d="M0 0 C0.33 0 0.66 0 1 0 C1 14.52 1 29.04 1 44 C-4.28 43.67 -9.56 43.34 -15 43 C-15 29.14 -15 15.28 -15 1 C-14.67 1 -14.34 1 -14 1 C-14 14.53 -14 28.06 -14 42 C-10.04 42 -6.08 42 -2 42 C-2 29.13 -2 16.26 -2 3 C-1.34 3 -0.68 3 0 3 C0 2.01 0 1.02 0 0 Z " fill="#161616" transform="translate(629,173)"/>
<path d="M0 0 C0.66 0 1.32 0 2 0 C2.88385231 3.01676571 3.09763246 5.63119165 3.02172852 8.76855469 C2.99158409 10.17956451 2.99158409 10.17956451 2.96083069 11.61907959 C2.92027809 13.13021332 2.92027809 13.13021332 2.87890625 14.671875 C2.85529526 15.70942932 2.83168427 16.74698364 2.80735779 17.815979 C2.73083034 21.12746229 2.6467587 24.43870529 2.5625 27.75 C2.50926841 29.99608202 2.45652808 32.24217574 2.40429688 34.48828125 C2.27522987 39.99233945 2.13939688 45.49619412 2 51 C-2.95 51 -7.9 51 -13 51 C-13 36.81 -13 22.62 -13 8 C-12.67 8 -12.34 8 -12 8 C-12 21.86 -12 35.72 -12 50 C-7.71 50 -3.42 50 1 50 C0.67 33.5 0.34 17 0 0 Z " fill="#252525" transform="translate(664,165)"/>
<path d="M0 0 C0.33 0 0.66 0 1 0 C1.09914961 5.58669908 1.17160105 11.17288186 1.21972656 16.76025391 C1.23979629 18.65943325 1.26705851 20.55855115 1.30175781 22.45751953 C1.35048109 25.19318839 1.37301507 27.92803771 1.390625 30.6640625 C1.41127014 31.50804596 1.43191528 32.35202942 1.45318604 33.22158813 C1.45570098 39.88408532 -0.61458598 43.32544489 -5.0625 48.3125 C-7.74761088 50.65114496 -9.79022576 50.98020998 -13.3125 51.3125 C-17.64707225 50.94516337 -19.68125027 49.75213393 -23 47 C-23 46.34 -23 45.68 -23 45 C-23.66 45 -24.32 45 -25 45 C-25 44.34 -25 43.68 -25 43 C-22.72845746 44.09370567 -20.77636507 45.1677262 -18.75 46.6875 C-15.00206563 48.47628686 -11.85574673 48.2930383 -8 47 C-4.8213759 44.4300486 -3.29271891 42.87815673 -2 39 C-1.34 39 -0.68 39 0 39 C0 26.13 0 13.26 0 0 Z " fill="#1A1A1A" transform="translate(459,155)"/>
<path d="M0 0 C0.33 0 0.66 0 1 0 C1.01458252 0.6391333 1.02916504 1.2782666 1.04418945 1.93676758 C1.11969483 4.8958845 1.21600725 7.8539959 1.3125 10.8125 C1.33505859 11.81732422 1.35761719 12.82214844 1.38085938 13.85742188 C1.60439449 20.1773691 2.51432384 25.70600958 4.46557617 31.72924805 C5 34 5 34 4 37 C-0.00580806 27.68552397 -2.15563801 19.69293382 -2.25 9.5625 C-2.2593457 8.8514209 -2.26869141 8.1403418 -2.27832031 7.40771484 C-2.2460209 2.2460209 -2.2460209 2.2460209 0 0 Z " fill="#1A1A1A" transform="translate(266,164)"/>
<path d="M0 0 C0 3.85650192 -1.02427779 4.32200946 -3.6875 7 C-8.98960999 12.74395249 -12.30815157 19.35996865 -14 27 C-14.99 26.67 -15.98 26.34 -17 26 C-13.4638588 15.45675873 -9.36075818 6.52416479 0 0 Z " fill="#171717" transform="translate(282,136)"/>
<path d="M0 0 C0.77601563 0.15339844 1.55203125 0.30679688 2.3515625 0.46484375 C7.02199468 1.14990714 11.66255085 1.35746477 16.375 1.5625 C17.30183594 1.60568359 18.22867187 1.64886719 19.18359375 1.69335938 C21.45560294 1.79876186 23.72770925 1.90088606 26 2 C22.01933296 5.49116506 19.16417529 5.42901638 14.0390625 5.3046875 C9.18087741 4.8176201 4.63141677 3.50498649 0 2 C0 1.34 0 0.68 0 0 Z " fill="#0F0F0F" transform="translate(287,214)"/>
<path d="M0 0 C9.57 0 19.14 0 29 0 C29 0.66 29 1.32 29 2 C26.23382437 3.38308781 23.98982 3.11210196 20.8984375 3.09765625 C19.68671875 3.09443359 18.475 3.09121094 17.2265625 3.08789062 C15.95554687 3.07951172 14.68453125 3.07113281 13.375 3.0625 C12.09625 3.05798828 10.8175 3.05347656 9.5 3.04882812 C6.33328708 3.03701203 3.16666644 3.02053815 0 3 C0 2.01 0 1.02 0 0 Z " fill="#444444" transform="translate(693,180)"/>
<path d="M0 0 C0.66 0.33 1.32 0.66 2 1 C1.52949219 1.4125 1.05898438 1.825 0.57421875 2.25 C-6.54685176 8.85505091 -8.16878716 15.69313006 -10 25 C-12.12635922 21.81046117 -12.27001047 20.75857479 -11.6015625 17.09765625 C-9.50930932 9.80194224 -6.21838787 4.33841014 0 0 Z " fill="#0E0E0E" transform="translate(688,172)"/>
<path d="M0 0 C8.25 0 16.5 0 25 0 C25.33 0.99 25.66 1.98 26 3 C20.06 3 14.12 3 8 3 C8 2.67 8 2.34 8 2 C5.36 1.67 2.72 1.34 0 1 C0 0.67 0 0.34 0 0 Z " fill="#090A09" transform="translate(196,272)"/>
<path d="M0 0 C6.93 0 13.86 0 21 0 C21 0.33 21 0.66 21 1 C26.28 1.33 31.56 1.66 37 2 C37 2.33 37 2.66 37 3 C28.42 3 19.84 3 11 3 C11 2.34 11 1.68 11 1 C9.39125 1.309375 9.39125 1.309375 7.75 1.625 C4 2 4 2 0 0 Z " fill="#171817" transform="translate(184,78)"/>
<path d="M0 0 C0.66 0 1.32 0 2 0 C1 3 1 3 -2.3125 4.6875 C-7.69154098 6.54234172 -13.37757515 6.6660411 -19 6 C-19.66 5.34 -20.32 4.68 -21 4 C-18.34081834 3.11360611 -16.51935359 2.82010975 -13.76953125 2.68359375 C-12.96708984 2.64169922 -12.16464844 2.59980469 -11.33789062 2.55664062 C-10.50451172 2.51732422 -9.67113281 2.47800781 -8.8125 2.4375 C-7.96751953 2.39431641 -7.12253906 2.35113281 -6.25195312 2.30664062 C-4.16815567 2.20068482 -2.08409897 2.0998498 0 2 C0 1.34 0 0.68 0 0 Z " fill="#2B2B2B" transform="translate(450,213)"/>
<path d="M0 0 C7.62044217 4.53597748 12.79367384 10.69041125 16 19 C16.75 22.5 16.75 22.5 17 25 C16.01 25 15.02 25 14 25 C13.85304688 24.38253906 13.70609375 23.76507813 13.5546875 23.12890625 C11.2063137 14.26177069 7.47846377 7.49887042 0 2 C0 1.34 0 0.68 0 0 Z " fill="#1B1C1B" transform="translate(323,135)"/>
<path d="M0 0 C0.33 0.99 0.66 1.98 1 3 C-3.79819403 5.55903682 -8.70197223 5.38612745 -14 5 C-14.99 4.67 -15.98 4.34 -17 4 C-17 3.34 -17 2.68 -17 2 C-16.02417969 1.93941406 -15.04835938 1.87882813 -14.04296875 1.81640625 C-12.77066406 1.73261719 -11.49835937 1.64882812 -10.1875 1.5625 C-8.92292969 1.48128906 -7.65835938 1.40007812 -6.35546875 1.31640625 C-3.00818107 1.12815453 -3.00818107 1.12815453 0 0 Z " fill="#252525" transform="translate(567,214)"/>
<path d="M0 0 C0.33 0 0.66 0 1 0 C1.16435547 0.93972656 1.16435547 0.93972656 1.33203125 1.8984375 C1.49058594 2.71570313 1.64914063 3.53296875 1.8125 4.375 C1.96332031 5.18710938 2.11414063 5.99921875 2.26953125 6.8359375 C2.87544942 9.35820641 2.87544942 9.35820641 6 11 C11.88076115 11.59653934 11.88076115 11.59653934 17 9 C17.66 8.34 18.32 7.68 19 7 C18.51963048 11.56351039 18.51963048 11.56351039 16.4375 13.3125 C11.90802607 14.59004393 8.13099676 15.07339096 3.890625 12.9375 C1.82597289 11.41791604 0.39704164 10.15414807 -1 8 C-1.29244637 4.9780542 -0.7757681 2.99963666 0 0 Z " fill="#262625" transform="translate(126,160)"/>
<path d="M0 0 C1.41791408 0.45445964 2.83428046 0.91374944 4.25 1.375 C5.43335938 1.75785156 5.43335938 1.75785156 6.640625 2.1484375 C9 3 9 3 11.0625 4.09375 C14.00658219 5.4708207 16.80417106 5.1229165 20 5 C19.67 5.99 19.34 6.98 19 8 C11.72042599 7.10343482 5.7659533 5.74162922 0 1 C0 0.67 0 0.34 0 0 Z " fill="#111111" transform="translate(356,211)"/>
<path d="M0 0 C5.94 0 11.88 0 18 0 C17.67 1.65 17.34 3.3 17 5 C16.67 4.01 16.34 3.02 16 2 C11.05 2 6.1 2 1 2 C0.67 2.66 0.34 3.32 0 4 C0 2.68 0 1.36 0 0 Z " fill="#2C2C2C" transform="translate(322,188)"/>
<path d="M0 0 C0.66 0 1.32 0 2 0 C4.04898287 4.21896866 4.21207997 7.65372146 4.125 12.3125 C4.10695313 13.56675781 4.08890625 14.82101563 4.0703125 16.11328125 C4.04710937 17.06589844 4.02390625 18.01851562 4 19 C3.34 19 2.68 19 2 19 C1.93941406 18.13117188 1.87882813 17.26234375 1.81640625 16.3671875 C1.73261719 15.21476563 1.64882813 14.06234375 1.5625 12.875 C1.48128906 11.73804688 1.40007813 10.60109375 1.31640625 9.4296875 C1.02269035 6.2459522 0.56875687 3.14489093 0 0 Z " fill="#141414" transform="translate(737,141)"/>
<path d="M0 0 C0.66 0 1.32 0 2 0 C1.80664062 0.61746094 1.61328125 1.23492187 1.4140625 1.87109375 C-0.32996151 7.54348868 -1.78217894 13.19193035 -3 19 C-5 16 -5 16 -4.875 12.875 C-3.82974874 8.24603015 -2.07199318 4.24999531 0 0 Z " fill="#0F0F0F" transform="translate(681,136)"/>
<path d="M0 0 C1.25683594 0.04833984 2.51367188 0.09667969 3.80859375 0.14648438 C5.12730469 0.20255859 6.44601562 0.25863281 7.8046875 0.31640625 C9.14451188 0.36963038 10.48435558 0.42237076 11.82421875 0.47460938 C15.10959637 0.60460633 18.39469428 0.73958311 21.6796875 0.87890625 C21.6796875 1.20890625 21.6796875 1.53890625 21.6796875 1.87890625 C20.48424316 1.91649048 20.48424316 1.91649048 19.26464844 1.95483398 C15.65283528 2.07089414 12.04127648 2.19357556 8.4296875 2.31640625 C6.54830078 2.37538086 6.54830078 2.37538086 4.62890625 2.43554688 C3.42363281 2.47744141 2.21835937 2.51933594 0.9765625 2.5625 C-0.13364258 2.59915771 -1.24384766 2.63581543 -2.38769531 2.67358398 C-4.85053099 2.84601529 -6.96514215 3.17486064 -9.3203125 3.87890625 C-8.9903125 2.88890625 -8.6603125 1.89890625 -8.3203125 0.87890625 C-5.47357495 -0.54446252 -3.17415903 -0.12868212 0 0 Z " fill="#191A1A" transform="translate(701.3203125,167.12109375)"/>
<path d="M0 0 C0.66 0.33 1.32 0.66 2 1 C-3.35714286 7.29464286 -3.35714286 7.29464286 -8.25 8 C-9.4875 8 -10.725 8 -12 8 C-12.66 7.34 -13.32 6.68 -14 6 C-13.24074219 5.81824219 -12.48148437 5.63648438 -11.69921875 5.44921875 C-10.70535156 5.19785156 -9.71148437 4.94648438 -8.6875 4.6875 C-7.70136719 4.44386719 -6.71523438 4.20023438 -5.69921875 3.94921875 C-2.99858988 2.99950411 -1.79043784 2.18152323 0 0 Z " fill="#1F201F" transform="translate(387,200)"/>
<path d="M0 0 C0.66 0 1.32 0 2 0 C2.18175781 0.68707031 2.36351562 1.37414062 2.55078125 2.08203125 C2.80214844 2.98308594 3.05351562 3.88414062 3.3125 4.8125 C3.55613281 5.70582031 3.79976563 6.59914062 4.05078125 7.51953125 C5.0200819 10.05247738 5.95009604 11.2716496 8 13 C7.67 13.99 7.34 14.98 7 16 C2.48933711 10.89582884 -0.40602583 7.10545205 0 0 Z " fill="#141414" transform="translate(418,199)"/>
<path d="M0 0 C4.95 0 9.9 0 15 0 C15.33 1.32 15.66 2.64 16 4 C15.34 4 14.68 4 14 4 C14 3.01 14 2.02 14 1 C9.71 1 5.42 1 1 1 C0.34 2.65 -0.32 4.3 -1 6 C-3.125 6.8125 -3.125 6.8125 -5 7 C-3.625 4.5 -3.625 4.5 -2 2 C-1.34 2 -0.68 2 0 2 C0 1.34 0 0.68 0 0 Z " fill="#171817" transform="translate(323,190)"/>
<path d="M0 0 C0.66 0.99 1.32 1.98 2 3 C1.5390625 5.26171875 1.5390625 5.26171875 0.625 7.6875 C0.32851563 8.49574219 0.03203125 9.30398437 -0.2734375 10.13671875 C-0.51320313 10.75160156 -0.75296875 11.36648437 -1 12 C-1.99 11.67 -2.98 11.34 -4 11 C-2.68 7.37 -1.36 3.74 0 0 Z " fill="#111111" transform="translate(269,151)"/>
<path d="M0 0 C3.50411265 0.3185557 5.5840105 0.69067447 8.4375 2.8125 C10 5 10 5 9.75 7.25 C9.5025 7.8275 9.255 8.405 9 9 C8.443125 7.8553125 8.443125 7.8553125 7.875 6.6875 C5.6369085 3.47956885 3.55788567 2.5022184 0 1 C0 0.67 0 0.34 0 0 Z " fill="#171717" transform="translate(654,155)"/>
<path d="M0 0 C0.99 0.33 1.98 0.66 3 1 C3.33 3.31 3.66 5.62 4 8 C3.01 8 2.02 8 1 8 C0.67 5.36 0.34 2.72 0 0 Z " fill="#1C1C1C" transform="translate(676,156)"/>
<path d="M0 0 C0.99 0.33 1.98 0.66 3 1 C0.12835434 3.70272533 -1.30991841 4.94791837 -5.3125 5.25 C-6.199375 5.1675 -7.08625 5.085 -8 5 C-7.01 4.34 -6.02 3.68 -5 3 C-3.7625 2.1646875 -3.7625 2.1646875 -2.5 1.3125 C-1.675 0.879375 -0.85 0.44625 0 0 Z " fill="#181818" transform="translate(395,211)"/>
<path d="M0 0 C0.66 0.33 1.32 0.66 2 1 C-0.31 3.31 -2.62 5.62 -5 8 C-5.66 7.34 -6.32 6.68 -7 6 C-4.69 4.02 -2.38 2.04 0 0 Z " fill="#1D1D1D" transform="translate(688,172)"/>
<path d="M0 0 C0.66 0.66 1.32 1.32 2 2 C0.68 4.64 -0.64 7.28 -2 10 C-2.66 9.67 -3.32 9.34 -4 9 C-2.80100302 5.9168649 -1.52299523 2.93720508 0 0 Z " fill="#232323" transform="translate(153,174)"/>
<path d="M0 0 C1.98 1.65 3.96 3.3 6 5 C5.67 5.99 5.34 6.98 5 8 C4.4121875 7.0409375 4.4121875 7.0409375 3.8125 6.0625 C1.61527704 3.56221181 0.24208567 3.35049575 -3 3 C-2.01 2.01 -1.02 1.02 0 0 Z " fill="#141414" transform="translate(732,176)"/>
<path d="M0 0 C4.75 0.875 4.75 0.875 7 2 C7 2.66 7 3.32 7 4 C7.66 4 8.32 4 9 4 C8.34 5.32 7.68 6.64 7 8 C6.5875 7.236875 6.175 6.47375 5.75 5.6875 C4.04124191 3.0633358 2.58982247 1.69678024 0 0 Z " fill="#232323" transform="translate(617,155)"/>
<path d="M0 0 C0.99 0.66 1.98 1.32 3 2 C-1.95 4.475 -1.95 4.475 -7 7 C-4.91100178 2.82200357 -3.94455388 2.07608099 0 0 Z " fill="#2F2E2E" transform="translate(512,153)"/>
<path d="M0 0 C0.66 0.33 1.32 0.66 2 1 C-0.64 3.64 -3.28 6.28 -6 9 C-6 6 -6 6 -3.5625 3.375 C-2.716875 2.59125 -1.87125 1.8075 -1 1 C-0.67 0.67 -0.34 0.34 0 0 Z " fill="#D6D7D6" transform="translate(293,149)"/>
<path d="M0 0 C0 3 0 3 -2.5 5.6875 C-3.325 6.450625 -4.15 7.21375 -5 8 C-5.99 7.67 -6.98 7.34 -8 7 C-5.36 4.69 -2.72 2.38 0 0 Z " fill="#202121" transform="translate(282,136)"/>
<path d="M0 0 C-1.33332095 3.99996286 -3.4957827 4.83782337 -7 7 C-7.66 6.34 -8.32 5.68 -9 5 C-7.87926138 4.16094435 -6.75325453 3.32892169 -5.625 2.5 C-4.99851562 2.0359375 -4.37203125 1.571875 -3.7265625 1.09375 C-2 0 -2 0 0 0 Z " fill="#B1B2B2" transform="translate(732,175)"/>
<path d="M0 0 C0.33 0.99 0.66 1.98 1 3 C-1.25 5.0625 -1.25 5.0625 -4 7 C-6.3125 6.75 -6.3125 6.75 -8 6 C-7.05125 5.38125 -6.1025 4.7625 -5.125 4.125 C-2.05554891 2.18029031 -2.05554891 2.18029031 0 0 Z " fill="#C7C8C8" transform="translate(692,166)"/>
</svg>
